<svg width="105" height="40" viewBox="0 0 105 40" fill="none" xmlns="http://www.w3.org/2000/svg">
<g clip-path="url(#clip0_915_4915)">
<path fill-rule="evenodd" clip-rule="evenodd" d="M23.7153 25.6092L29.1387 16.2552C30.8415 13.3183 34.6127 12.312 37.5621 14.0077L38.1153 14.3258L32.6467 23.7579C30.9689 26.6516 27.2531 27.6431 24.3471 25.9724L23.7153 25.6092Z" fill="white"/>
<path fill-rule="evenodd" clip-rule="evenodd" d="M12.8999 25.6092L18.3232 16.2552C20.026 13.3183 23.7973 12.312 26.7466 14.0077L27.2999 14.3258L21.8312 23.7579C20.1535 26.6516 16.4377 27.6431 13.5317 25.9724L12.8999 25.6092Z" fill="white"/>
<path fill-rule="evenodd" clip-rule="evenodd" d="M2.08423 25.6092L7.50757 16.2552C9.21036 13.3183 12.9816 12.312 15.931 14.0077L16.4842 14.3258L11.0155 23.7579C9.3378 26.6516 5.62198 27.6431 2.71603 25.9724L2.08423 25.6092Z" fill="white"/>
<path d="M53.1682 13.9955L52.8458 14.0722H49.6071C49.8988 13.7961 50.1751 13.5201 50.436 13.244L48.4713 12.784C47.4429 13.9802 45.6164 15.2837 43.1451 16.2038C43.5442 16.4645 44.1121 17.0933 44.3884 17.5073C45.6164 16.9552 46.6908 16.3571 47.6424 15.6824H51.4644C50.789 16.3571 49.9141 16.9552 48.9471 17.4766C48.456 17.0626 47.9034 16.6485 47.4122 16.3418L46.0461 17.1853C46.4452 17.4766 46.9057 17.8294 47.3048 18.1974C45.8926 18.7495 44.327 19.1329 42.7614 19.3629C43.0837 19.7616 43.4368 20.5131 43.6056 20.9731C48.0262 20.145 52.3853 18.2434 54.3654 14.7163L53.1682 13.9955ZM55.1329 19.6389L54.7952 19.731H52.0477C52.3853 19.3936 52.677 19.0562 52.984 18.7035L51.0039 18.2434C49.8374 19.731 47.7192 21.2338 44.5573 22.2153C44.941 22.5373 45.4629 23.2121 45.6777 23.6262C47.4276 22.9821 48.8857 22.2153 50.1137 21.3412H53.5979C52.9379 22.1846 52.0784 22.8747 51.05 23.4268C50.5741 23.0127 49.9909 22.5833 49.515 22.246L48.0108 23.1201C48.4253 23.4268 48.9164 23.8102 49.3309 24.1936C47.3815 24.899 45.0638 25.2517 42.6079 25.4204C42.8995 25.8805 43.2065 26.6779 43.3447 27.184C49.1927 26.6319 54.2273 25.0217 56.3915 20.3597L55.1329 19.6389Z" fill="white"/>
<path d="M68.2718 20.9731H61.2265V19.0255H68.2718V20.9731ZM70.129 17.3386H65.6471V15.8817H71.1421V14.1795H65.6471V12.83H63.7898V17.3386H59.492V22.66H70.129V17.3386ZM59.2771 27.092C60.0906 26.2792 60.8274 24.945 61.2725 23.7182L59.5074 23.2888C59.0776 24.3929 58.3408 25.6044 57.5887 26.2792L59.2771 27.092ZM62.0246 23.8255C62.2088 24.8837 62.3316 26.2485 62.3316 27.046L64.1889 26.8159C64.1582 26.0185 63.9893 24.6996 63.7591 23.6568L62.0246 23.8255ZM65.1559 23.8409C65.601 24.853 66.0615 26.1718 66.2303 26.9693L67.9955 26.5092C67.8113 25.7118 67.3048 24.4389 66.8289 23.4728L65.1559 23.8409ZM68.2718 23.7488C69.0085 24.7763 69.8374 26.1718 70.1597 27.046L71.9249 26.3712C71.5411 25.4664 70.6509 24.1322 69.9141 23.1661L68.2718 23.7488Z" fill="white"/>
<path d="M87.182 20.4057C86.4452 19.823 85.0791 19.0715 83.8205 18.4581C84.8949 17.584 86.0768 16.4645 87.0285 15.4217L85.3861 14.5322C84.7568 15.3757 83.8205 16.3725 82.8995 17.2313C82.8535 16.1118 82.8382 14.8849 82.8535 13.5814H73.3216V15.483H80.9963C81.1344 22.43 81.9479 26.8619 85.3708 26.8619C86.6448 26.8619 87.1513 26.0338 87.3355 23.4881C86.921 23.2428 86.3992 22.7674 85.9847 22.338C85.9387 23.9789 85.7852 24.945 85.4322 24.945C84.0968 24.9603 83.3907 23.0741 83.0684 19.8383C84.2963 20.5131 85.5703 21.2798 86.261 21.8779L87.182 20.4057Z" fill="white"/>
<path d="M93.5826 18.9182C93.0761 19.0869 92.5849 19.2556 92.0784 19.4242V17.4306H93.7054V15.7437H92.0784V12.8453H90.2979V15.7437H88.3639V17.4306H90.2979V19.9917C89.5304 20.2063 88.8243 20.421 88.2411 20.5744L88.7629 22.3073C89.2541 22.154 89.7606 21.9853 90.2979 21.8012V25.0984C90.2979 25.3131 90.2211 25.3897 90.0062 25.3897C89.8067 25.3897 89.1774 25.3897 88.5634 25.3744C88.7783 25.8345 89.0239 26.5552 89.0699 27.0306C90.1597 27.0306 90.8965 26.9846 91.403 26.6933C91.9249 26.4325 92.0784 25.9878 92.0784 25.0984V21.2032C92.6923 21.0038 93.3063 20.7891 93.9049 20.5744L93.5826 18.9182ZM100.306 24.5923H96.7292V20.8811H100.306V24.5923ZM102.608 15.5597V13.8268H93.7821V15.5597H96.1459C95.5626 17.9214 94.4114 20.5897 92.7077 22.154C93.0607 22.5067 93.6133 23.1661 93.9049 23.5648C94.2886 23.1814 94.657 22.7674 95.0101 22.3073V27.1533H96.7292V26.2945H100.306V27.0766H102.101V19.1635H96.8213C97.3431 17.998 97.7422 16.7559 98.0799 15.5597H102.608Z" fill="white"/>
</g>
<defs>
<clipPath id="clip0_915_4915">
<rect width="104.9" height="40" fill="white"/>
</clipPath>
</defs>
</svg>
