<svg width="10" height="10" viewBox="0 0 10 10" fill="none" xmlns="http://www.w3.org/2000/svg">
<path fill-rule="evenodd" clip-rule="evenodd" d="M6.11361 2.86696C5.9487 3.15259 6.18742 3.50216 6.51349 3.4525L8.95326 3.08091C9.20246 3.04296 9.35214 2.78369 9.26041 2.5489L8.36233 0.250209C8.2423 -0.0570036 7.82021 -0.0889624 7.6553 0.196676L7.08114 1.19116C4.8235 -0.112279 1.93668 0.661246 0.633236 2.91888C-0.670211 5.17652 0.103313 8.06335 2.36095 9.36679C4.61859 10.6702 7.50542 9.89672 8.80886 7.63908C9.23881 6.8944 9.44277 6.08126 9.44204 5.27906H8.65521C8.65582 5.94755 8.48585 6.62516 8.12756 7.24573C7.04136 9.1271 4.63566 9.7717 2.7543 8.68549C0.872935 7.59929 0.228332 5.19359 1.31454 3.31223C2.40074 1.43087 4.80642 0.786264 6.68779 1.87246L6.11361 2.86696Z" fill="#333333"/>
</svg>
